<svg width="114" height="42" viewBox="0 0 114 42" fill="none" xmlns="http://www.w3.org/2000/svg">
<g clip-path="url(#clip0_1_267)">
<path d="M0 21C0 10 9 1 20 1C31 1 40 10 40 21C40 32 31 41 20 41C9 41 0 32 0 21Z" fill="#232E35"/>
<path d="M16.344 12.7L27.168 28.3V29.5H23.664L16.344 18.94V29.5H12.84V12.7H16.344ZM23.664 12.7H27.168V25.276L23.664 22.756V12.7Z" fill="#FBFBFB"/>
<path d="M44.728 30.5V12.62H47.272L57.112 25.868L55.792 26.132V12.62H59.056V30.5H56.488L46.792 17.156L47.992 16.892V30.5H44.728ZM62.2531 30.5V17.444H65.3971V30.5H62.2531ZM62.2531 15.98V12.62H65.3971V15.98H62.2531ZM74.5879 30.788C73.2919 30.788 72.1239 30.492 71.0839 29.9C70.0599 29.292 69.2519 28.476 68.6599 27.452C68.0679 26.412 67.7719 25.244 67.7719 23.948C67.7719 22.652 68.0679 21.492 68.6599 20.468C69.2519 19.444 70.0599 18.636 71.0839 18.044C72.1239 17.452 73.2919 17.156 74.5879 17.156C75.5159 17.156 76.3799 17.324 77.1799 17.66C77.9799 17.98 78.6679 18.428 79.2439 19.004C79.8359 19.564 80.2599 20.236 80.5159 21.02L77.7559 22.22C77.5159 21.564 77.1079 21.036 76.5319 20.636C75.9719 20.236 75.3239 20.036 74.5879 20.036C73.8999 20.036 73.2839 20.204 72.7399 20.54C72.2119 20.876 71.7959 21.34 71.4919 21.932C71.1879 22.524 71.0359 23.204 71.0359 23.972C71.0359 24.74 71.1879 25.42 71.4919 26.012C71.7959 26.604 72.2119 27.068 72.7399 27.404C73.2839 27.74 73.8999 27.908 74.5879 27.908C75.3399 27.908 75.9959 27.708 76.5559 27.308C77.1159 26.908 77.5159 26.372 77.7559 25.7L80.5159 26.948C80.2599 27.684 79.8439 28.348 79.2679 28.94C78.6919 29.516 78.0039 29.972 77.2039 30.308C76.4039 30.628 75.5319 30.788 74.5879 30.788ZM89.2855 30.788C88.0055 30.788 86.8375 30.492 85.7815 29.9C84.7415 29.308 83.9095 28.5 83.2855 27.476C82.6775 26.452 82.3735 25.284 82.3735 23.972C82.3735 22.66 82.6775 21.492 83.2855 20.468C83.9095 19.444 84.7415 18.636 85.7815 18.044C86.8215 17.452 87.9895 17.156 89.2855 17.156C90.5655 17.156 91.7255 17.452 92.7655 18.044C93.8055 18.636 94.6295 19.444 95.2375 20.468C95.8615 21.476 96.1735 22.644 96.1735 23.972C96.1735 25.284 95.8615 26.452 95.2375 27.476C94.6135 28.5 93.7815 29.308 92.7415 29.9C91.7015 30.492 90.5495 30.788 89.2855 30.788ZM89.2855 27.908C89.9895 27.908 90.6055 27.74 91.1335 27.404C91.6775 27.068 92.1015 26.604 92.4055 26.012C92.7255 25.404 92.8855 24.724 92.8855 23.972C92.8855 23.204 92.7255 22.532 92.4055 21.956C92.1015 21.364 91.6775 20.9 91.1335 20.564C90.6055 20.212 89.9895 20.036 89.2855 20.036C88.5655 20.036 87.9335 20.212 87.3895 20.564C86.8455 20.9 86.4135 21.364 86.0935 21.956C85.7895 22.532 85.6375 23.204 85.6375 23.972C85.6375 24.724 85.7895 25.404 86.0935 26.012C86.4135 26.604 86.8455 27.068 87.3895 27.404C87.9335 27.74 88.5655 27.908 89.2855 27.908ZM98.5578 30.5V12.332H101.702V30.5H98.5578ZM108.565 30.788C107.653 30.788 106.861 30.636 106.189 30.332C105.517 30.028 104.997 29.596 104.629 29.036C104.261 28.46 104.077 27.796 104.077 27.044C104.077 26.324 104.237 25.684 104.557 25.124C104.877 24.548 105.373 24.068 106.045 23.684C106.717 23.3 107.565 23.028 108.589 22.868L112.861 22.172V24.572L109.189 25.196C108.565 25.308 108.101 25.508 107.797 25.796C107.493 26.084 107.341 26.46 107.341 26.924C107.341 27.372 107.509 27.732 107.845 28.004C108.197 28.26 108.629 28.388 109.141 28.388C109.797 28.388 110.373 28.252 110.869 27.98C111.381 27.692 111.773 27.3 112.045 26.804C112.333 26.308 112.477 25.764 112.477 25.172V21.812C112.477 21.252 112.253 20.788 111.805 20.42C111.373 20.036 110.797 19.844 110.077 19.844C109.405 19.844 108.805 20.028 108.277 20.396C107.765 20.748 107.389 21.22 107.149 21.812L104.581 20.564C104.837 19.876 105.237 19.284 105.781 18.788C106.341 18.276 106.997 17.876 107.749 17.588C108.501 17.3 109.317 17.156 110.197 17.156C111.269 17.156 112.213 17.356 113.029 17.756C113.845 18.14 114.477 18.684 114.925 19.388C115.389 20.076 115.621 20.884 115.621 21.812V30.5H112.645V28.268L113.317 28.22C112.981 28.78 112.581 29.252 112.117 29.636C111.653 30.004 111.125 30.292 110.533 30.5C109.941 30.692 109.285 30.788 108.565 30.788ZM123.495 30.788C122.103 30.788 120.887 30.46 119.847 29.804C118.823 29.132 118.119 28.228 117.735 27.092L120.087 25.964C120.423 26.7 120.887 27.276 121.479 27.692C122.087 28.108 122.759 28.316 123.495 28.316C124.071 28.316 124.527 28.188 124.863 27.932C125.199 27.676 125.367 27.34 125.367 26.924C125.367 26.668 125.295 26.46 125.151 26.3C125.023 26.124 124.839 25.98 124.599 25.868C124.375 25.74 124.127 25.636 123.855 25.556L121.719 24.956C120.615 24.636 119.775 24.148 119.199 23.492C118.639 22.836 118.359 22.06 118.359 21.164C118.359 20.364 118.559 19.668 118.959 19.076C119.375 18.468 119.943 17.996 120.663 17.66C121.399 17.324 122.239 17.156 123.183 17.156C124.415 17.156 125.503 17.452 126.447 18.044C127.391 18.636 128.063 19.468 128.463 20.54L126.063 21.668C125.839 21.076 125.463 20.604 124.935 20.252C124.407 19.9 123.815 19.724 123.159 19.724C122.631 19.724 122.215 19.844 121.911 20.084C121.607 20.324 121.455 20.636 121.455 21.02C121.455 21.26 121.519 21.468 121.647 21.644C121.775 21.82 121.951 21.964 122.175 22.076C122.415 22.188 122.687 22.292 122.991 22.388L125.079 23.012C126.151 23.332 126.975 23.812 127.551 24.452C128.143 25.092 128.439 25.876 128.439 26.804C128.439 27.588 128.231 28.284 127.815 28.892C127.399 29.484 126.823 29.948 126.087 30.284C125.351 30.62 124.487 30.788 123.495 30.788Z" fill="#232E35"/>
</g>
<defs>
<clipPath id="clip0_1_267">
<rect width="114" height="41" fill="white" transform="translate(0 0.5)"/>
</clipPath>
</defs>
</svg>
